
        <svg xmlns="http://www.w3.org/2000/svg" xmlns:xlink="http://www.w3.org/1999/xlink" version="1.1" width="3300" 
        height="2415" viewBox="0 0 3300 2415">
			
			<g transform="scale(15) translate(10, 10)">
				<defs id="SvgjsDefs1021"><linearGradient id="SvgjsLinearGradient1028"><stop id="SvgjsStop1029" stop-color="#905e26" offset="0"></stop><stop id="SvgjsStop1030" stop-color="#f5ec9b" offset="0.5"></stop><stop id="SvgjsStop1031" stop-color="#905e26" offset="1"></stop></linearGradient><linearGradient id="SvgjsLinearGradient1032"><stop id="SvgjsStop1033" stop-color="#905e26" offset="0"></stop><stop id="SvgjsStop1034" stop-color="#f5ec9b" offset="0.5"></stop><stop id="SvgjsStop1035" stop-color="#905e26" offset="1"></stop></linearGradient></defs><g id="SvgjsG1022" featureKey="nameFeature-0" transform="matrix(2.6822303365710805,0,0,2.6822303365710805,-4.085038726194341,-53.59246498568199)" fill="url(#SvgjsLinearGradient1028)"><path d="M11.699 40.35156 c-5.8984 0 -10.176 -4.0625 -10.176 -10.195 c0 -6.1133 4.2773 -10.176 10.176 -10.176 c4.668 0 8.2422 2.4805 9.3164 6.8555 l-4.1797 0.54688 c-0.76172 -2.5 -2.6953 -3.7891 -5.1758 -3.7891 c-3.2813 0 -5.6445 2.5977 -5.6445 6.5625 s2.3633 6.5625 5.6445 6.5625 c2.4805 0 4.4141 -1.2695 5.1758 -3.7695 l4.1797 0.52734 c-1.0742 4.375 -4.7266 6.875 -9.3164 6.875 z M29.216796875 40.37109 c-3.1836 0 -6.0547 -1.5234 -6.0547 -5.3516 c0 -4.1992 3.418 -5.5078 7.5195 -6.25 l2.9688 -0.54688 c1.2891 -0.25391 1.8164 -0.83984 1.8164 -1.7773 c0 -2.4219 -1.8945 -3.2227 -3.8477 -3.2227 c-2.1289 0 -3.8672 0.9375 -4.1602 3.457 l-4.043 -0.74219 c0.68359 -4.0625 3.6133 -5.9375 8.4766 -5.9375 c3.9258 0 7.8906 1.4063 7.8906 6.9336 l0 7.6172 c0 1.8555 0.48828 2.3828 1.8555 2.3828 l0.3125 0 l0 3.0664 l-2.1289 0 c-2.207 0 -3.5352 -0.78125 -3.9844 -2.5977 l-0.21484 0 c-1.5234 2.1484 -4.043 2.9688 -6.4063 2.9688 z M30.271496875 36.8359 c3.0859 0 5.4883 -2.2852 5.4883 -5.8789 l-5.0195 1.1133 c-2.0703 0.39063 -3.2227 1.0938 -3.2227 2.5781 c0 1.543 1.2109 2.1875 2.7539 2.1875 z M49.70309375 23.652 c0.95703 -1.9531 3.4766 -3.4961 6.3281 -3.5156 l0 4.1016 c-4.0039 0 -6.1523 1.4648 -6.1523 5.7422 l0 10.02 l-4.5117 0 l0 -19.648 l4.3359 0 l0 3.3008 z M63.353515625 40.37109 c-3.1836 0 -6.0547 -1.5234 -6.0547 -5.3516 c0 -4.1992 3.418 -5.5078 7.5195 -6.25 l2.9688 -0.54688 c1.2891 -0.25391 1.8164 -0.83984 1.8164 -1.7773 c0 -2.4219 -1.8945 -3.2227 -3.8477 -3.2227 c-2.1289 0 -3.8672 0.9375 -4.1602 3.457 l-4.043 -0.74219 c0.68359 -4.0625 3.6133 -5.9375 8.4766 -5.9375 c3.9258 0 7.8906 1.4063 7.8906 6.9336 l0 7.6172 c0 1.8555 0.48828 2.3828 1.8555 2.3828 l0.3125 0 l0 3.0664 l-2.1289 0 c-2.207 0 -3.5352 -0.78125 -3.9844 -2.5977 l-0.21484 0 c-1.5234 2.1484 -4.043 2.9688 -6.4063 2.9688 z M64.408215625 36.8359 c3.0859 0 5.4883 -2.2852 5.4883 -5.8789 l-5.0195 1.1133 c-2.0703 0.39063 -3.2227 1.0938 -3.2227 2.5781 c0 1.543 1.2109 2.1875 2.7539 2.1875 z"></path></g><g id="SvgjsG1023" featureKey="sloganGroupContainer" transform="matrix(1,0,0,1,0,75)" fill="url(#SvgjsLinearGradient1032)"><rect xmlns="http://www.w3.org/2000/svg" width="200" height="66" rx="10" ry="10"></rect></g><g id="SvgjsG1024" featureKey="sloganFeature-0" transform="matrix(1.8301352648573175,0,0,1.8301352648573175,17.371742734968148,84.24079588096693)" fill="#04163d"><path d="M17.354 20 l-2.3145 0 l-0.91797 -10.996 l-3.9941 10.996 l-1.4648 0 l-3.9746 -10.977 l-0.92773 10.977 l-2.3242 0 l1.1133 -13.926 l3.252 0 l3.584 9.8438 l3.6133 -9.8438 l3.252 0 z M29.4523359375 20 l-1.1035 -3.0957 l-6.084 0 l-1.0938 3.0957 l-2.4121 0 l5.127 -13.926 l2.8418 0 l5.127 13.926 l-2.4023 0 z M22.9775359375 14.9023 l4.668 0 l-2.334 -6.582 z M41.277384375 20 l-3.6133 -6.2109 l-1.5039 0 l0 6.2109 l-2.334 0 l0 -13.926 l4.834 0 c3.0176 0 4.3457 1.8066 4.3457 4.043 c0 1.9434 -1.1523 3.252 -2.998 3.584 l4.0137 6.2988 l-2.7441 0 z M36.160184375 8.047 l0 4.0137 l2.1582 0 c1.709 0 2.4414 -0.80078 2.4414 -1.9922 c0 -1.1816 -0.73242 -2.0215 -2.4414 -2.0215 l-2.1582 0 z M54.244929687500004 20 l-4.6582 -6.1816 l-1.1328 0 l0 6.1816 l-2.334 0 l0 -13.926 l2.334 0 l0 5.6738 l1.1133 0 l4.5801 -5.6738 l2.8613 0 l-5.4297 6.6504 l5.6543 7.2754 l-2.9883 0 z M66.9296625 8.154 l-5.4102 0 l0 3.8574 l4.7852 0 l0 2.0605 l-4.7852 0 l0 3.8379 l5.4102 0 l0 2.0898 l-7.7734 0 l0 -13.926 l7.7734 0 l0 2.0801 z M77.3290671875 6.074 l0 2.0801 l-3.4375 0 l0 11.846 l-2.3242 0 l0 -11.846 l-3.4473 0 l0 -2.0801 l9.209 0 z M83.792925 20.18555 c-2.9492 0 -5.1563 -1.4063 -5.6055 -3.8672 l2.4023 -0.55664 c0.25391 1.6016 1.5723 2.4805 3.291 2.4805 c1.3574 0 2.5879 -0.57617 2.5684 -2.041 c-0.019531 -1.5234 -1.709 -1.9629 -3.5352 -2.4805 c-2.1094 -0.61523 -4.2773 -1.3184 -4.2773 -3.877 c0 -2.5977 2.1289 -3.9648 4.7754 -3.9648 c2.4414 0 4.7559 1.0254 5.293 3.5254 l-2.2559 0.56641 c-0.3125 -1.4844 -1.4648 -2.1387 -2.9199 -2.1387 c-1.2988 0 -2.5293 0.55664 -2.5293 1.9727 c0 1.2891 1.4746 1.6895 3.1641 2.1582 c2.1777 0.60547 4.6973 1.3477 4.6973 4.1406 c0 2.8809 -2.4121 4.082 -5.0684 4.082 z"></path></g>
			</g>
		</svg>
	